<?xml version="1.0" encoding="UTF-8"?><svg id="a" xmlns="http://www.w3.org/2000/svg" width="1647" height="1462.11" viewBox="0 0 1647 1462.11"><rect x="-.11" width="1647.11" height="1647.11"/><rect x="647" y="962.11" width="2000" height="500"/><path d="M1190.81,1321.49c.07.11.16.2.23.31,16.28,27.82,46.46,46.56,80.96,46.56s64.67-18.74,80.95-46.56c.07-.11.17-.2.24-.31.07-.12.09-.25.15-.37,7.87-13.72,12.4-29.59,12.4-46.51,0-51.69-42.06-93.75-93.75-93.75s-93.75,42.06-93.75,93.75c0,16.92,4.53,32.8,12.41,46.52.06.12.08.25.15.36ZM1272,1351.31c-22.66,0-43.05-9.89-57.1-25.56h114.21c-14.05,15.68-34.44,25.56-57.11,25.56ZM1348.7,1274.61c0,8.35-1.36,16.39-3.84,23.93l-57.16-99.01c34.79,7.26,61.01,38.17,61.01,75.08ZM1331.05,1308.71h-118.1l59.05-102.28,59.05,102.28ZM1256.3,1199.53l-57.16,99.01c-2.48-7.54-3.84-15.57-3.84-23.93,0-36.92,26.22-67.82,61.01-75.08Z" style="fill:#fff;"/><rect x="972.65" y="1038.92" width="50" height="50" transform="translate(1044.51 -393.83) rotate(45)" style="fill:#fff;"/><rect x="1028" y="1083.09" width="25.26" height="25.26" transform="translate(1079.58 -414.9) rotate(45)" style="fill:#fff;"/><rect x="998.06" y="1113.03" width="25.26" height="25.26" transform="translate(1091.98 -384.97) rotate(45)" style="fill:#fff;"/><rect x="1200.32" y="1076.36" width="25.26" height="25.26" transform="translate(1125.29 -538.73) rotate(45)" style="fill:#fff;"/><rect x="1112.16" y="1164.52" width="25.26" height="25.26" transform="translate(1161.81 -450.56) rotate(45)" style="fill:#fff;"/><rect x="1240.27" y="1062.74" width="25.26" height="25.26" transform="translate(1127.36 -570.97) rotate(45)" style="fill:#fff;"/><rect x="1182.67" y="1030.68" width="25.26" height="25.26" transform="translate(1087.82 -539.62) rotate(45)" style="fill:#fff;"/><rect x="1092.2" y="1205.14" width="25.26" height="25.26" transform="translate(1184.68 -424.55) rotate(45)" style="fill:#fff;"/><path d="M1897,1456.59l-504.99-147.04c-.76,2.61-1.61,5.22-2.55,7.81-.94,2.6-1.97,5.13-3.07,7.62l311.41,137.13,1342.66,591.24v-263.82l-1143.46-332.94Z" style="fill:#ff00fb; stroke:#000; stroke-miterlimit:10; stroke-width:.25px;"/><path d="M1897,1121.49l-503.6,123.38c.65,2.64,1.22,5.32,1.7,8.03.48,2.72.86,5.43,1.16,8.14l500.74-54.7,1143.46-124.91v-240.09l-1143.46,280.15Z" style="fill:#00b7ff;"/><path d="M1897,1288.07l-500.03-10.77c-.07,2.72-.21,5.46-.45,8.2-.24,2.75-.57,5.47-.99,8.16l501.47,77.33,1143.46,176.32v-234.61l-1143.46-24.63Z" style="fill:#4000ff;"/><path d="M1653.82,645l-192.31,317.11-124.7,205.62c2.33,1.42,4.63,2.9,6.89,4.49,2.26,1.58,4.44,3.23,6.56,4.93l172.69-215.04,254.66-317.11h-123.79Z" style="fill:#ff9500;"/><path d="M1929.33,645l-331.07,317.11-235.99,226.04c1.88,1.97,3.71,4,5.49,6.11,1.77,2.12,3.45,4.28,5.06,6.47l325.63-238.62,432.74-317.11h-201.86Z" style="fill:#ffe500;"/><path d="M2418.84,645l-577.61,317.11-459.66,252.35c1.31,2.39,2.55,4.82,3.72,7.32,1.16,2.5,2.23,5.03,3.22,7.55l451.94-175.6,38.62-15,17.93-6.96,995.54-386.77h-473.7Z" style="fill:#0dff00;"/><path d="M1148.32,1292.9l-251.32,35.84L0,1456.46v86.51l897-188.76,252.8-53.2c-.59-2.7-1.08-5.4-1.48-8.11Z" style="fill:#fff;"/><path d="M1158.71,1327.44c-2.33-5.02-4.31-10.11-5.93-15.24l-255.78,80.65L0,1675.68v377.43h49.99l927.68-591,188.89-120.34c-2.88-4.54-5.51-9.32-7.85-14.33Z" style="fill:#fff;"/><path d="M1173.63,1351.78l-140.63,110.33-753.33,591h124.22l659.03-591,116-104.03c-1.82-2.03-3.59-4.13-5.29-6.3Z" style="fill:#fff;"/><path d="M1456.6,645l-93.61,317.11-56.05,192.49c2.61.76,5.22,1.6,7.81,2.55,2.6.94,5.13,1.97,7.62,3.07l87.24-198.11,139.63-317.11,97.76-222.02V0l-190.4,645Z" style="fill:red;"/></svg>